<svg width="24" height="24" viewBox="0 0 24 24" fill="none" xmlns="http://www.w3.org/2000/svg">
<path d="M12 2.4C10.5855 2.4 9.22896 2.90571 8.22876 3.80589C7.22857 4.70606 6.66667 5.92696 6.66667 7.2C6.66667 8.47304 7.22857 9.69394 8.22876 10.5941C9.22896 11.4943 10.5855 12 12 12C13.4145 12 14.771 11.4943 15.7712 10.5941C16.7714 9.69394 17.3333 8.47304 17.3333 7.2C17.3333 5.92696 16.7714 4.70606 15.7712 3.80589C14.771 2.90571 13.4145 2.4 12 2.4ZM4 7.2C4 5.29044 4.84286 3.45909 6.34315 2.10883C7.84344 0.758569 9.87827 0 12 0C14.1217 0 16.1566 0.758569 17.6569 2.10883C19.1571 3.45909 20 5.29044 20 7.2C20 9.10956 19.1571 10.9409 17.6569 12.2912C16.1566 13.6414 14.1217 14.4 12 14.4C9.87827 14.4 7.84344 13.6414 6.34315 12.2912C4.84286 10.9409 4 9.10956 4 7.2ZM6.66667 19.2C5.6058 19.2 4.58839 19.5793 3.83824 20.2544C3.08809 20.9295 2.66667 21.8452 2.66667 22.8C2.66667 23.1183 2.52619 23.4235 2.27614 23.6485C2.02609 23.8736 1.68696 24 1.33333 24C0.979711 24 0.640573 23.8736 0.390524 23.6485C0.140476 23.4235 0 23.1183 0 22.8C0 21.2087 0.702379 19.6826 1.95262 18.5574C3.20286 17.4321 4.89856 16.8 6.66667 16.8H17.3333C19.1014 16.8 20.7971 17.4321 22.0474 18.5574C23.2976 19.6826 24 21.2087 24 22.8C24 23.1183 23.8595 23.4235 23.6095 23.6485C23.3594 23.8736 23.0203 24 22.6667 24C22.313 24 21.9739 23.8736 21.7239 23.6485C21.4738 23.4235 21.3333 23.1183 21.3333 22.8C21.3333 21.8452 20.9119 20.9295 20.1618 20.2544C19.4116 19.5793 18.3942 19.2 17.3333 19.2H6.66667Z" fill="#5CC11F"/>
</svg>
