<svg width="24" height="26" viewBox="0 0 24 26" fill="none" xmlns="http://www.w3.org/2000/svg">
<path d="M2.46287 22.7167C2.46287 23.3399 2.72184 23.9377 3.1828 24.3784C3.64376 24.8191 4.26896 25.0667 4.92086 25.0667H19.6688C20.3207 25.0667 20.9459 24.8191 21.4068 24.3784C21.8678 23.9377 22.1267 23.3399 22.1267 22.7167V6.26667H2.46287V22.7167ZM16.3914 10.1833C16.3914 9.97558 16.4778 9.77634 16.6314 9.62944C16.7851 9.48253 16.9935 9.40001 17.2108 9.40001C17.4281 9.40001 17.6365 9.48253 17.7901 9.62944C17.9438 9.77634 18.0301 9.97558 18.0301 10.1833V21.15C18.0301 21.3578 17.9438 21.557 17.7901 21.7039C17.6365 21.8508 17.4281 21.9333 17.2108 21.9333C16.9935 21.9333 16.7851 21.8508 16.6314 21.7039C16.4778 21.557 16.3914 21.3578 16.3914 21.15V10.1833ZM11.4755 10.1833C11.4755 9.97558 11.5618 9.77634 11.7155 9.62944C11.8691 9.48253 12.0775 9.40001 12.2948 9.40001C12.5121 9.40001 12.7205 9.48253 12.8742 9.62944C13.0278 9.77634 13.1141 9.97558 13.1141 10.1833V21.15C13.1141 21.3578 13.0278 21.557 12.8742 21.7039C12.7205 21.8508 12.5121 21.9333 12.2948 21.9333C12.0775 21.9333 11.8691 21.8508 11.7155 21.7039C11.5618 21.557 11.4755 21.3578 11.4755 21.15V10.1833ZM6.55951 10.1833C6.55951 9.97558 6.64583 9.77634 6.79949 9.62944C6.95314 9.48253 7.16154 9.40001 7.37884 9.40001C7.59614 9.40001 7.80454 9.48253 7.95819 9.62944C8.11185 9.77634 8.19817 9.97558 8.19817 10.1833V21.15C8.19817 21.3578 8.11185 21.557 7.95819 21.7039C7.80454 21.8508 7.59614 21.9333 7.37884 21.9333C7.16154 21.9333 6.95314 21.8508 6.79949 21.7039C6.64583 21.557 6.55951 21.3578 6.55951 21.15V10.1833ZM22.9461 1.56667H16.8011L16.3198 0.651154C16.2178 0.455426 16.0607 0.290783 15.8662 0.175749C15.6717 0.0607141 15.4475 -0.000148244 15.2188 8.58372e-06H9.36571C9.13752 -0.000830099 8.91369 0.0598053 8.71988 0.174968C8.52606 0.29013 8.3701 0.455162 8.26986 0.651154L7.7885 1.56667H1.64355C1.42625 1.56667 1.21785 1.6492 1.06419 1.79611C0.910541 1.94301 0.824219 2.14225 0.824219 2.35001L0.824219 3.91667C0.824219 4.12443 0.910541 4.32367 1.06419 4.47057C1.21785 4.61748 1.42625 4.70001 1.64355 4.70001H22.9461C23.1634 4.70001 23.3718 4.61748 23.5254 4.47057C23.6791 4.32367 23.7654 4.12443 23.7654 3.91667V2.35001C23.7654 2.14225 23.6791 1.94301 23.5254 1.79611C23.3718 1.6492 23.1634 1.56667 22.9461 1.56667Z" fill="white"/>
</svg>
