<svg width="34" height="36" viewBox="0 0 34 36" fill="none" xmlns="http://www.w3.org/2000/svg">
<path d="M5.70385 28.4048H33.986V0.273682H5.62579C4.37112 0.277468 3.169 0.746926 2.28181 1.57958C1.39462 2.41224 0.894422 3.54048 0.890388 4.71803V30.6208H0.891247C0.891247 30.6319 0.890388 30.6428 0.890388 30.654C0.890388 33.2473 3.05893 35.4378 5.62579 35.4378H33.986V33.0933H5.62579C4.45472 33.0933 3.38817 31.9306 3.38817 30.6538C3.38817 29.4348 4.44856 28.4048 5.70385 28.4048ZM25.8682 2.64233V15.3025L22.0903 12.1898L18.3749 15.2842V2.64233H25.8682ZM15.8771 2.61794V18.4417H18.3468L22.0994 15.3166L25.892 18.4417H28.366V2.61794H31.4882V26.0605H8.38998L8.38373 2.61794H15.8771ZM5.62579 2.61794H5.88595L5.89188 26.0605H5.70353C4.89135 26.0606 4.09327 26.2597 3.38817 26.638V4.73634C3.38626 4.17713 3.62077 3.64003 4.04026 3.24289C4.45975 2.84576 5.02996 2.621 5.62579 2.61794Z" fill="#FF9900"/>
</svg>
