<svg width="20" height="15" viewBox="0 0 20 15" fill="none" xmlns="http://www.w3.org/2000/svg">
<path d="M17 0H3C2.20435 0 1.44129 0.296316 0.87868 0.823762C0.316071 1.35121 0 2.06658 0 2.8125V12.1875C0 12.9334 0.316071 13.6488 0.87868 14.1762C1.44129 14.7037 2.20435 15 3 15H17C17.7956 15 18.5587 14.7037 19.1213 14.1762C19.6839 13.6488 20 12.9334 20 12.1875V2.8125C20 2.06658 19.6839 1.35121 19.1213 0.823762C18.5587 0.296316 17.7956 0 17 0ZM16.33 1.875L10 6.32812L3.67 1.875H16.33ZM17 13.125H3C2.73478 13.125 2.48043 13.0262 2.29289 12.8504C2.10536 12.6746 2 12.4361 2 12.1875V3.04688L9.4 8.25C9.5731 8.37171 9.78363 8.4375 10 8.4375C10.2164 8.4375 10.4269 8.37171 10.6 8.25L18 3.04688V12.1875C18 12.4361 17.8946 12.6746 17.7071 12.8504C17.5196 13.0262 17.2652 13.125 17 13.125Z" fill="#5CC11F"/>
</svg>
