<svg width="20" height="24" viewBox="0 0 20 24" fill="none" xmlns="http://www.w3.org/2000/svg">
<path d="M0.963145 23.3847L0.961641 23.3839C0.816321 23.3077 0.699713 23.1991 0.620378 23.0727L0.199246 23.3372L0.620377 23.0727C0.541328 22.9469 0.501162 22.8067 0.500828 22.6661V3.10667H0.500974L0.500682 3.09459C0.484825 2.438 0.746286 1.79506 1.24032 1.30668C1.73373 0.818905 2.41944 0.525742 3.15187 0.5H16.8481C17.5806 0.525742 18.2663 0.818906 18.7597 1.30668C19.2537 1.79506 19.5152 2.438 19.4993 3.09459L19.4992 3.09459V3.10667V22.6647C19.498 22.8028 19.4584 22.9405 19.3812 23.0644C19.3036 23.1891 19.1898 23.2966 19.0478 23.3732L19.2849 23.8133L19.0477 23.3732C18.9047 23.4503 18.7401 23.492 18.5707 23.492C18.4014 23.492 18.2367 23.4503 18.0937 23.3732L18.0901 23.3713L9.99077 19.0913L9.75015 18.9641L9.51273 19.0972L1.89907 23.3638L1.89905 23.3638L1.89284 23.3674C1.75369 23.448 1.59185 23.4945 1.42362 23.5C1.26039 23.4984 1.10183 23.4581 0.963145 23.3847Z" stroke="black"/>
</svg>
