<svg width="14" height="18" viewBox="0 0 14 18" fill="none" xmlns="http://www.w3.org/2000/svg">
<path d="M1.00563 17.05C0.841554 17.0495 0.680378 17.0095 0.537635 16.9337C0.390107 16.8561 0.267262 16.7431 0.181675 16.6064C0.0960884 16.4696 0.0508332 16.3141 0.0505415 16.1556V3.03407C0.0376304 2.49768 0.250945 1.97814 0.644254 1.58804C1.03756 1.19794 1.57918 0.968701 2.15173 0.950012H11.3205C11.8931 0.968701 12.4347 1.19794 12.828 1.58804C13.2213 1.97814 13.4346 2.49768 13.4217 3.03407V16.1556C13.4207 16.3117 13.3761 16.4648 13.2923 16.5997C13.2086 16.7347 13.0885 16.8467 12.9442 16.9248C12.799 17.0033 12.6343 17.0446 12.4666 17.0446C12.299 17.0446 12.1343 17.0033 11.9891 16.9248L6.57377 14.0536L1.48317 16.9158C1.33948 16.9994 1.17468 17.0457 1.00563 17.05Z" fill="#5CC11F"/>
</svg>
