<svg width="20" height="24" viewBox="0 0 20 24" fill="none" xmlns="http://www.w3.org/2000/svg">
<path d="M1.19695 22.9427L1.19394 22.9411C1.12395 22.9044 1.07447 22.8556 1.0438 22.8068L0.196955 23.3387L1.0438 22.8068C1.01368 22.7589 1.00101 22.7103 1.00083 22.6654V3.10667V3.09459L1.00054 3.08252C0.988133 2.56891 1.19202 2.0575 1.59183 1.66226C1.99067 1.26798 2.55236 1.02344 3.16105 1H16.8389C17.4476 1.02344 18.0093 1.26798 18.4082 1.66226C18.808 2.05751 19.0119 2.56891 18.9995 3.08252L18.9992 3.09459V3.10667V22.6622C18.9985 22.706 18.986 22.7533 18.9568 22.8001L19.8057 23.3288L18.9568 22.8001C18.9269 22.8482 18.8787 22.8963 18.8106 22.933L18.8105 22.933C18.7417 22.9701 18.6587 22.992 18.5707 22.992C18.4827 22.992 18.3998 22.9701 18.3309 22.933L18.3309 22.933L18.3237 22.9292L10.2244 18.6492L9.74313 18.3949L9.2683 18.661L1.65464 22.9276L1.64839 22.9311L1.64218 22.9347C1.57847 22.9717 1.50122 22.9954 1.41792 22.9998C1.33713 22.9974 1.26109 22.9767 1.19695 22.9427Z" stroke="white" stroke-width="2"/>
</svg>
