<svg width="24" height="25" viewBox="0 0 24 25" fill="none" xmlns="http://www.w3.org/2000/svg">
<path d="M12 0.666504C5.37305 0.666504 0 6.04149 0 12.6665C0 19.2954 5.37305 24.6665 12 24.6665C18.627 24.6665 24 19.2954 24 12.6665C24 6.04149 18.627 0.666504 12 0.666504ZM12 22.3439C6.65168 22.3439 2.32258 18.0166 2.32258 12.6665C2.32258 7.31997 6.65187 2.98908 12 2.98908C17.3463 2.98908 21.6774 7.31833 21.6774 12.6665C21.6774 18.0147 17.3501 22.3439 12 22.3439ZM17.1892 9.99554C17.1892 13.24 13.685 13.2899 13.685 14.4889V14.7955C13.685 15.1162 13.425 15.3762 13.1043 15.3762H10.8956C10.575 15.3762 10.315 15.1162 10.315 14.7955V14.3766C10.315 12.647 11.6263 11.9556 12.6172 11.4C13.4669 10.9236 13.9877 10.5996 13.9877 9.96873C13.9877 9.13425 12.9232 8.58036 12.0627 8.58036C10.9406 8.58036 10.4226 9.1115 9.6945 10.0305C9.49819 10.2782 9.13998 10.3242 8.88808 10.1332L7.54176 9.11238C7.29465 8.92502 7.23929 8.57692 7.41382 8.32062C8.55706 6.64187 10.0132 5.69876 12.2804 5.69876C14.6548 5.69876 17.1892 7.55218 17.1892 9.99554ZM14.0323 18.0859C14.0323 19.2065 13.1206 20.1181 12 20.1181C10.8794 20.1181 9.96774 19.2065 9.96774 18.0859C9.96774 16.9653 10.8794 16.0536 12 16.0536C13.1206 16.0536 14.0323 16.9653 14.0323 18.0859Z" fill="#5CC11F"/>
</svg>
