<svg width="26" height="26" viewBox="0 0 26 26" fill="none" xmlns="http://www.w3.org/2000/svg">
<path d="M1 13C1 19.6274 6.37258 25 13 25C19.6274 25 25 19.6274 25 13C25 6.37258 19.6274 1 13 1C6.37258 1 1 6.37258 1 13Z" stroke="#5CC11F" stroke-width="2" stroke-linecap="round" stroke-linejoin="round"/>
<path d="M14.2004 1.05908C14.2004 1.05908 17.8004 5.79982 17.8004 12.9998C17.8004 20.1998 14.2004 24.9406 14.2004 24.9406" stroke="#5CC11F" stroke-width="2" stroke-linecap="round" stroke-linejoin="round"/>
<path d="M11.8004 24.9406C11.8004 24.9406 8.20044 20.1998 8.20044 12.9998C8.20044 5.79982 11.8004 1.05908 11.8004 1.05908" stroke="#5CC11F" stroke-width="2" stroke-linecap="round" stroke-linejoin="round"/>
<path d="M1.75586 17.1991H24.2448" stroke="#5CC11F" stroke-width="2" stroke-linecap="round" stroke-linejoin="round"/>
<path d="M1.75586 8.8009H24.2448" stroke="#5CC11F" stroke-width="2" stroke-linecap="round" stroke-linejoin="round"/>
</svg>
