<svg width="27" height="27" viewBox="0 0 27 27" fill="none" xmlns="http://www.w3.org/2000/svg">
<path d="M13.5 0C13.858 0 14.2014 0.142232 14.4546 0.395406C14.7078 0.64858 14.85 0.991958 14.85 1.35V2.7C14.85 3.05804 14.7078 3.40142 14.4546 3.65459C14.2014 3.90777 13.858 4.05 13.5 4.05C13.142 4.05 12.7986 3.90777 12.5454 3.65459C12.2922 3.40142 12.15 3.05804 12.15 2.7V1.35C12.15 0.991958 12.2922 0.64858 12.5454 0.395406C12.7986 0.142232 13.142 0 13.5 0ZM23.0458 3.95415C23.2989 4.20731 23.4411 4.55063 23.4411 4.9086C23.4411 5.26657 23.2989 5.60989 23.0458 5.86305L22.0914 6.8175C21.9669 6.94644 21.8179 7.04928 21.6532 7.12004C21.4885 7.19079 21.3113 7.22803 21.1321 7.22959C20.9528 7.23115 20.7751 7.19699 20.6092 7.12911C20.4433 7.06123 20.2925 6.96099 20.1658 6.83423C20.039 6.70748 19.9388 6.55675 19.8709 6.39084C19.803 6.22493 19.7689 6.04716 19.7704 5.86791C19.772 5.68866 19.8092 5.51151 19.88 5.3468C19.9507 5.1821 20.0536 5.03313 20.1825 4.9086L21.1369 3.95415C21.3901 3.70106 21.7334 3.55889 22.0914 3.55889C22.4494 3.55889 22.7927 3.70106 23.0458 3.95415ZM3.95415 3.95415C4.20731 3.70106 4.55063 3.55889 4.9086 3.55889C5.26657 3.55889 5.60989 3.70106 5.86305 3.95415L6.8175 4.9086C7.06341 5.16321 7.19949 5.50423 7.19641 5.85819C7.19333 6.21216 7.05136 6.55075 6.80105 6.80105C6.55075 7.05136 6.21216 7.19333 5.85819 7.19641C5.50423 7.19949 5.16321 7.06341 4.9086 6.8175L3.95415 5.86305C3.70106 5.60989 3.55889 5.26657 3.55889 4.9086C3.55889 4.55063 3.70106 4.20731 3.95415 3.95415ZM13.5 8.1C12.0678 8.1 10.6943 8.66893 9.68162 9.68162C8.66893 10.6943 8.1 12.0678 8.1 13.5C8.1 14.9322 8.66893 16.3057 9.68162 17.3184C10.6943 18.3311 12.0678 18.9 13.5 18.9C14.9322 18.9 16.3057 18.3311 17.3184 17.3184C18.3311 16.3057 18.9 14.9322 18.9 13.5C18.9 12.0678 18.3311 10.6943 17.3184 9.68162C16.3057 8.66893 14.9322 8.1 13.5 8.1ZM5.4 13.5C5.4 11.3517 6.25339 9.29148 7.77244 7.77244C9.29148 6.25339 11.3517 5.4 13.5 5.4C15.6483 5.4 17.7085 6.25339 19.2276 7.77244C20.7466 9.29148 21.6 11.3517 21.6 13.5C21.6 15.6483 20.7466 17.7085 19.2276 19.2276C17.7085 20.7466 15.6483 21.6 13.5 21.6C11.3517 21.6 9.29148 20.7466 7.77244 19.2276C6.25339 17.7085 5.4 15.6483 5.4 13.5ZM0 13.5C0 13.142 0.142232 12.7986 0.395406 12.5454C0.64858 12.2922 0.991958 12.15 1.35 12.15H2.7C3.05804 12.15 3.40142 12.2922 3.65459 12.5454C3.90777 12.7986 4.05 13.142 4.05 13.5C4.05 13.858 3.90777 14.2014 3.65459 14.4546C3.40142 14.7078 3.05804 14.85 2.7 14.85H1.35C0.991958 14.85 0.64858 14.7078 0.395406 14.4546C0.142232 14.2014 0 13.858 0 13.5ZM22.95 13.5C22.95 13.142 23.0922 12.7986 23.3454 12.5454C23.5986 12.2922 23.942 12.15 24.3 12.15H25.65C26.008 12.15 26.3514 12.2922 26.6046 12.5454C26.8578 12.7986 27 13.142 27 13.5C27 13.858 26.8578 14.2014 26.6046 14.4546C26.3514 14.7078 26.008 14.85 25.65 14.85H24.3C23.942 14.85 23.5986 14.7078 23.3454 14.4546C23.0922 14.2014 22.95 13.858 22.95 13.5ZM4.9086 20.1825C5.16321 19.9366 5.50423 19.8005 5.85819 19.8036C6.21216 19.8067 6.55075 19.9486 6.80105 20.1989C7.05136 20.4492 7.19333 20.7878 7.19641 21.1418C7.19949 21.4958 7.06341 21.8368 6.8175 22.0914L5.86305 23.0458C5.60844 23.2918 5.26742 23.4278 4.91346 23.4248C4.55949 23.4217 4.2209 23.2797 3.9706 23.0294C3.72029 22.7791 3.57832 22.4405 3.57524 22.0865C3.57216 21.7326 3.70824 21.3916 3.95415 21.1369L4.9086 20.1825ZM20.1825 22.0914C19.9366 21.8368 19.8005 21.4958 19.8036 21.1418C19.8067 20.7878 19.9486 20.4492 20.1989 20.1989C20.4492 19.9486 20.7878 19.8067 21.1418 19.8036C21.4958 19.8005 21.8368 19.9366 22.0914 20.1825L23.0458 21.1369C23.2918 21.3916 23.4278 21.7326 23.4248 22.0865C23.4217 22.4405 23.2797 22.7791 23.0294 23.0294C22.7791 23.2797 22.4405 23.4217 22.0865 23.4248C21.7326 23.4278 21.3916 23.2918 21.1369 23.0458L20.1825 22.0914ZM13.5 22.95C13.858 22.95 14.2014 23.0922 14.4546 23.3454C14.7078 23.5986 14.85 23.942 14.85 24.3V25.65C14.85 26.008 14.7078 26.3514 14.4546 26.6046C14.2014 26.8578 13.858 27 13.5 27C13.142 27 12.7986 26.8578 12.5454 26.6046C12.2922 26.3514 12.15 26.008 12.15 25.65V24.3C12.15 23.942 12.2922 23.5986 12.5454 23.3454C12.7986 23.0922 13.142 22.95 13.5 22.95Z" fill="#5CC11F"/>
</svg>
