<svg width="22" height="18" viewBox="0 0 22 18" fill="none" xmlns="http://www.w3.org/2000/svg">
<path d="M18.9076 7.875H17.7731V5.34375C17.7731 2.39766 14.5494 0 10.5882 0C6.6271 0 3.40336 2.39766 3.40336 5.34375V7.875H2.26891C1.01628 7.875 0 8.63086 0 9.5625V16.3125C0 17.2441 1.01628 18 2.26891 18H18.9076C20.1602 18 21.1765 17.2441 21.1765 16.3125V9.5625C21.1765 8.63086 20.1602 7.875 18.9076 7.875ZM13.9916 7.875H7.18487V5.34375C7.18487 3.94805 8.71166 2.8125 10.5882 2.8125C12.4648 2.8125 13.9916 3.94805 13.9916 5.34375V7.875Z" fill="#5CC11F"/>
</svg>
