<svg width="22" height="23" viewBox="0 0 22 23" fill="none" xmlns="http://www.w3.org/2000/svg">
<path d="M20.7674 18.7463C20.7674 18.7463 19.4611 20.0293 19.141 20.4055C18.6195 20.962 18.0051 21.2248 17.1996 21.2248C17.1221 21.2248 17.0395 21.2248 16.9621 21.2196C15.4285 21.1217 14.0035 20.524 12.9346 20.0139C10.0122 18.602 7.44598 16.5976 5.31352 14.0572C3.55281 11.9394 2.37556 9.98135 1.5959 7.879C1.11571 6.59595 0.940151 5.59631 1.0176 4.65334C1.06923 4.05046 1.30159 3.55064 1.73014 3.12296L3.49085 1.36585C3.74385 1.12882 4.01235 1 4.27568 1C4.60097 1 4.8643 1.19581 5.02953 1.3607C5.03469 1.36585 5.03986 1.371 5.04502 1.37616C5.35999 1.66987 5.65946 1.97388 5.97443 2.29851C6.13449 2.4634 6.29972 2.62829 6.46494 2.79833L7.87454 4.20505C8.42186 4.75125 8.42186 5.25622 7.87454 5.80242C7.72481 5.95185 7.58023 6.10128 7.43049 6.24556C6.99677 6.6887 7.33748 6.34868 6.88827 6.7506C6.87795 6.76091 6.86762 6.76606 6.86246 6.77637C6.41841 7.21951 6.50102 7.65234 6.59396 7.94605C6.59912 7.96151 6.60429 7.97697 6.60945 7.99243C6.97605 8.87871 7.49238 9.71347 8.27722 10.708L8.28238 10.7131C9.70747 12.4651 11.21 13.8306 12.8674 14.8766C13.0791 15.0106 13.296 15.1188 13.5025 15.2218C13.6884 15.3146 13.864 15.4022 14.0137 15.4949C14.0344 15.5052 14.055 15.5207 14.0757 15.531C14.2512 15.6186 14.4164 15.6598 14.5868 15.6598C15.0154 15.6598 15.2839 15.3919 15.3717 15.3043L16.3838 14.2942C16.5593 14.1191 16.8381 13.9078 17.1634 13.9078C17.4836 13.9078 17.7469 14.1087 17.9069 14.2839C17.9121 14.2891 17.9121 14.2891 17.9173 14.2942L20.7623 17.1334C21.2941 17.659 20.7674 18.7463 20.7674 18.7463Z" stroke="#5CC11F" stroke-width="2" stroke-linecap="round" stroke-linejoin="round"/>
</svg>
