<svg width="19" height="20" viewBox="0 0 19 20" fill="none" xmlns="http://www.w3.org/2000/svg">
<path d="M2.76338 15.9999H19V0H2.71857C1.99827 0.00215336 1.30814 0.269163 0.798809 0.742747C0.289479 1.21633 0.00231589 1.85803 0 2.52778V17.2603H0.000492996C0.000492996 17.2666 0 17.2728 0 17.2792C0 18.7542 1.24495 20 2.71857 20H19V18.6665H2.71857C2.04626 18.6665 1.43396 18.0053 1.43396 17.2791C1.43396 16.5857 2.04272 15.9999 2.76338 15.9999ZM14.3396 1.3472V8.54782L12.1708 6.77742L10.0377 8.53745V1.3472H14.3396ZM8.60377 1.33333V10.3333H10.0216L12.176 8.55582L14.3533 10.3333H15.7736V1.33333H17.566V14.6666H4.30547L4.30189 1.33333H8.60377ZM2.71857 1.33333H2.86792L2.87133 14.6666H2.7632C2.29693 14.6667 1.83876 14.7799 1.43396 14.995V2.53819C1.43287 2.22013 1.5675 1.91465 1.80833 1.68878C2.04915 1.4629 2.3765 1.33507 2.71857 1.33333Z" fill="white"/>
</svg>
