<svg width="31" height="26" viewBox="0 0 31 26" fill="none" xmlns="http://www.w3.org/2000/svg">
<path d="M22.2117 24.6013C18.2693 24.6013 15.0596 21.3899 15.0596 17.4454C15.0596 13.501 18.2693 10.2896 22.2117 10.2896C26.1541 10.2896 29.3638 13.501 29.3638 17.4454C29.3638 21.3899 26.1541 24.6013 22.2117 24.6013ZM22.2117 11.3368C18.8415 11.3368 16.1062 14.0804 16.1062 17.4454C16.1062 20.8105 18.8415 23.5541 22.2117 23.5541C25.5819 23.5541 28.3172 20.8105 28.3172 17.4454C28.3172 14.0804 25.5819 11.3368 22.2117 11.3368Z" fill="#5CC11F"/>
<path d="M29.5387 25.2994C29.4061 25.2994 29.2735 25.2505 29.1689 25.1458L27.7733 23.7495C27.571 23.5471 27.571 23.212 27.7733 23.0095C27.9757 22.8071 28.3106 22.8071 28.513 23.0095L29.9085 24.4058C30.1109 24.6082 30.1109 24.9433 29.9085 25.1458C29.8039 25.2505 29.6713 25.2994 29.5387 25.2994Z" fill="#5CC11F"/>
<path d="M1.05957 1.77014L1.05957 18.7701" stroke="#5CC11F" stroke-linecap="round"/>
<path d="M27.0596 2.13489V10.2701" stroke="#5CC11F" stroke-linecap="round"/>
<path d="M1.05951 1.27011L4.09725 1.71227C7.03784 2.14028 9.75528 3.12265 12.0659 4.59295L14.3343 6.03642" stroke="#5CC11F" stroke-linecap="round"/>
<path d="M26.8471 1.64101L25.0438 1.83252C21.7674 2.18045 18.7334 3.20569 16.1893 4.82462L14.2848 6.03646" stroke="#5CC11F" stroke-linecap="round"/>
<path d="M1.55957 18.7701L3.82796 19.0942C6.94126 19.5389 9.82684 20.6237 12.2646 22.2657L14.3343 23.6598" stroke="#5CC11F" stroke-linecap="round"/>
</svg>
