<svg width="20" height="20" viewBox="0 0 20 20" fill="none" xmlns="http://www.w3.org/2000/svg">
<path d="M10 2C8.82126 2 7.6908 2.42143 6.8573 3.17157C6.02381 3.92172 5.55556 4.93913 5.55556 6C5.55556 7.06087 6.02381 8.07828 6.8573 8.82843C7.6908 9.57857 8.82126 10 10 10C11.1787 10 12.3092 9.57857 13.1427 8.82843C13.9762 8.07828 14.4444 7.06087 14.4444 6C14.4444 4.93913 13.9762 3.92172 13.1427 3.17157C12.3092 2.42143 11.1787 2 10 2ZM3.33333 6C3.33333 4.4087 4.03571 2.88258 5.28596 1.75736C6.5362 0.632141 8.23189 0 10 0C11.7681 0 13.4638 0.632141 14.714 1.75736C15.9643 2.88258 16.6667 4.4087 16.6667 6C16.6667 7.5913 15.9643 9.11742 14.714 10.2426C13.4638 11.3679 11.7681 12 10 12C8.23189 12 6.5362 11.3679 5.28596 10.2426C4.03571 9.11742 3.33333 7.5913 3.33333 6ZM5.55556 16C4.6715 16 3.82365 16.3161 3.19853 16.8787C2.57341 17.4413 2.22222 18.2044 2.22222 19C2.22222 19.2652 2.10516 19.5196 1.89679 19.7071C1.68841 19.8946 1.4058 20 1.11111 20C0.816426 20 0.533811 19.8946 0.325437 19.7071C0.117063 19.5196 0 19.2652 0 19C0 17.6739 0.585316 16.4021 1.62718 15.4645C2.66905 14.5268 4.08213 14 5.55556 14H14.4444C15.9179 14 17.3309 14.5268 18.3728 15.4645C19.4147 16.4021 20 17.6739 20 19C20 19.2652 19.8829 19.5196 19.6746 19.7071C19.4662 19.8946 19.1836 20 18.8889 20C18.5942 20 18.3116 19.8946 18.1032 19.7071C17.8948 19.5196 17.7778 19.2652 17.7778 19C17.7778 18.2044 17.4266 17.4413 16.8015 16.8787C16.1763 16.3161 15.3285 16 14.4444 16H5.55556Z" fill="#5CC11F"/>
</svg>
