<svg width="24" height="24" viewBox="0 0 24 24" fill="none" xmlns="http://www.w3.org/2000/svg">
<path d="M15.0028 23.9938C14.5116 23.9938 13.9981 23.8487 13.4735 23.5695L9.08652 21.1245C8.87443 21.0128 8.41672 21.0128 8.20463 21.1245L3.82883 23.5695C2.87999 24.0943 1.90883 24.1389 1.17208 23.7035C0.424175 23.2681 0 22.3972 0 21.3254V8.64242C0 6.26435 1.93115 4.33289 4.30883 4.33289H12.9935C15.3712 4.33289 17.3023 6.26435 17.3023 8.64242V21.3254C17.3023 22.3972 16.8781 23.2681 16.1302 23.7035C15.7953 23.8933 15.4158 23.9938 15.0028 23.9938ZM8.65116 19.3605C9.09768 19.3605 9.53302 19.4609 9.9014 19.6619L14.2884 22.107C14.6902 22.3303 15.0586 22.3861 15.2819 22.2521C15.494 22.1293 15.6279 21.772 15.6279 21.3143V8.63124C15.6279 7.17984 14.4447 5.99641 12.9935 5.99641H4.30883C2.85766 5.99641 1.67442 7.17984 1.67442 8.63124V21.3143C1.67442 21.772 1.80837 22.1293 2.02047 22.2521C2.23256 22.3749 2.6121 22.3191 3.01396 22.0958L7.40093 19.6507C7.75815 19.4609 8.20465 19.3605 8.65116 19.3605Z" fill="#5CC11F"/>
<path d="M21.7003 19.661C21.2091 19.661 20.6957 19.5157 20.171 19.2366L16.0519 16.9367C15.784 16.7916 15.6277 16.5126 15.6277 16.2111V8.64143C15.6277 7.19002 14.4445 6.00658 12.9933 6.00658H7.53472C7.07704 6.00658 6.69751 5.62698 6.69751 5.16923V4.30953C6.69751 1.93146 8.62866 0 11.0063 0H19.691C22.0687 0 23.9998 1.93146 23.9998 4.30953V16.9926C23.9998 18.0644 23.5757 18.9352 22.8277 19.3706C22.4929 19.5604 22.1133 19.661 21.7003 19.661ZM17.3022 15.7086L20.9859 17.774C21.3877 17.9973 21.7561 18.0533 21.9794 17.9193C22.1915 17.7965 22.3254 17.4392 22.3254 16.9815V4.29836C22.3254 2.84695 21.1422 1.66352 19.691 1.66352H11.0063C9.55517 1.66352 8.37193 2.84695 8.37193 4.29836V4.32071H12.9933C15.371 4.32071 17.3022 6.25218 17.3022 8.63025V15.7086Z" fill="#5CC11F"/>
<path d="M10.8836 12.8289H6.41851C5.96083 12.8289 5.5813 12.4493 5.5813 11.9915C5.5813 11.5338 5.96083 11.1542 6.41851 11.1542H10.8836C11.3413 11.1542 11.7208 11.5338 11.7208 11.9915C11.7208 12.4493 11.3413 12.8289 10.8836 12.8289Z" fill="#5CC11F"/>
<path d="M8.65117 15.0611C8.1935 15.0611 7.81396 14.6815 7.81396 14.2237V9.75788C7.81396 9.30013 8.1935 8.92053 8.65117 8.92053C9.10885 8.92053 9.48838 9.30013 9.48838 9.75788V14.2237C9.48838 14.6815 9.10885 15.0611 8.65117 15.0611Z" fill="#5CC11F"/>
</svg>
